<?xml version="1.0" encoding="iso-8859-1"?>
<!-- Generator: Adobe Illustrator 18.0.0, SVG Export Plug-In . SVG Version: 6.00 Build 0)  -->
<!DOCTYPE svg PUBLIC "-//W3C//DTD SVG 1.1//EN" "http://www.w3.org/Graphics/SVG/1.1/DTD/svg11.dtd">
<svg version="1.1" id="Capa_1" xmlns="http://www.w3.org/2000/svg" xmlns:xlink="http://www.w3.org/1999/xlink" x="0px" y="0px"
	 viewBox="0 0 359.152 359.152" style="enable-background:new 0 0 359.152 359.152;" xml:space="preserve">
<path d="M352.732,167.319c-2.044-4.291-3.975-8.343-4.732-12.171c-0.8-4.042-0.565-8.649-0.317-13.526
	c0.368-7.227,0.748-14.701-2.159-21.712c-2.966-7.152-8.578-12.202-14.006-17.086c-3.574-3.216-6.95-6.254-9.169-9.569
	c-2.254-3.366-3.79-7.68-5.417-12.247c-2.437-6.843-4.957-13.919-10.375-19.337c-5.418-5.418-12.495-7.938-19.339-10.376
	c-4.567-1.626-8.88-3.162-12.247-5.416c-3.314-2.219-6.352-5.594-9.567-9.168c-4.884-5.429-9.935-11.042-17.087-14.007
	c-5.204-2.158-10.696-2.407-14.375-2.407c-2.467,0-4.943,0.126-7.338,0.248c-2.363,0.121-4.596,0.234-6.787,0.234
	c-2.697,0-4.838-0.175-6.738-0.55c-3.828-0.757-7.88-2.688-12.171-4.733c-6.626-3.157-13.477-6.421-21.331-6.421
	s-14.705,3.264-21.331,6.421c-4.291,2.044-8.343,3.975-12.17,4.732c-1.9,0.376-4.041,0.551-6.738,0.551
	c-2.191,0-4.424-0.113-6.788-0.234c-2.395-0.122-4.871-0.248-7.337-0.248c-5.927,0-10.36,0.743-14.375,2.407
	c-7.153,2.965-12.204,8.579-17.088,14.007c-3.215,3.574-6.253,6.949-9.567,9.168c-3.366,2.254-7.68,3.79-12.247,5.416
	c-6.844,2.438-13.921,4.958-19.339,10.376c-5.418,5.418-7.938,12.494-10.375,19.337c-1.626,4.567-3.163,8.881-5.417,12.247
	c-2.219,3.315-5.595,6.353-9.169,9.569c-5.428,4.884-11.041,9.934-14.006,17.086c-2.908,7.012-2.527,14.485-2.16,21.713
	c0.248,4.877,0.483,9.483-0.317,13.526c-0.757,3.828-2.688,7.88-4.732,12.171C3.264,173.945,0,180.797,0,188.65
	c0,7.854,3.264,14.707,6.419,21.333c1.549,3.253,3.013,6.326,3.974,9.304c0.799,2.479,3.106,4.158,5.71,4.158
	c23.211,0,36.928,15.047,48.299,34.932v73.681c0,9.937,8.084,18.02,18.021,18.02h194.306c9.937,0,18.021-8.083,18.021-18.02v-73.681
	c11.371-19.885,25.088-34.932,48.299-34.932c2.604,0,4.911-1.68,5.71-4.158c0.961-2.979,2.425-6.052,3.975-9.305
	c3.156-6.626,6.419-13.478,6.419-21.332C359.152,180.797,355.888,173.945,352.732,167.319z M82.423,338.078
	c-3.32,0-6.021-2.701-6.021-6.02v-50.184c0.194,0.404,0.389,0.807,0.583,1.212c10.032,20.867,20.29,42.171,36.724,54.992H82.423z
	 M282.75,332.058c0,3.319-2.701,6.02-6.021,6.02h-31.286c16.434-12.82,26.692-34.125,36.724-54.992
	c0.194-0.405,0.389-0.808,0.583-1.212V332.058z M341.899,204.823c-1.048,2.2-2.119,4.448-3.069,6.753
	c-36.709,2.309-52.341,34.826-67.478,66.311c-14.882,30.954-28.939,60.191-61.777,60.191h-59.997
	c-32.839,0-46.896-29.237-61.777-60.191c-15.137-31.484-30.77-64.002-67.478-66.311c-0.951-2.305-2.021-4.552-3.069-6.752
	C14.552,199.151,12,193.793,12,188.65c0-5.141,2.552-10.498,5.254-16.169c1.333-2.797,2.685-5.653,3.792-8.604L102.183,269.1
	c1.182,1.533,2.959,2.337,4.756,2.337c1.279,0,2.568-0.408,3.659-1.249c2.625-2.023,3.111-5.791,1.088-8.415l-87.99-114.112
	c-0.022-2.234-0.13-4.457-0.241-6.648c-0.314-6.169-0.61-11.997,1.26-16.506c1.926-4.644,6.308-8.587,10.948-12.762
	c3.964-3.567,8.063-7.255,11.115-11.814c0.171-0.256,0.326-0.521,0.49-0.78l72.81,159.139c1.009,2.205,3.184,3.505,5.46,3.505
	c0.834,0,1.684-0.175,2.492-0.545c3.014-1.379,4.339-4.939,2.96-7.952L53.736,84.448c2.007-5.628,3.958-10.904,7.346-14.291
	c3.506-3.506,9.031-5.474,14.879-7.557c4.038-1.438,8.18-2.926,12.034-5.033l51.72,191.525c0.723,2.675,3.144,4.437,5.788,4.437
	c0.518,0,1.044-0.067,1.568-0.209c3.199-0.864,5.092-4.158,4.228-7.356L98.249,49.511c1.525-1.563,2.984-3.178,4.42-4.774
	c4.175-4.64,8.119-9.023,12.763-10.949c2.488-1.032,5.504-1.492,9.778-1.492c2.162,0,4.379,0.113,6.727,0.232
	c2.41,0.123,4.901,0.249,7.398,0.249c0.36,0,0.71-0.004,1.058-0.01l22.723,213.346c0.328,3.08,2.93,5.365,5.959,5.365
	c0.212,0,0.427-0.011,0.643-0.034c3.295-0.351,5.682-3.307,5.331-6.602L152.275,31.002c3.862-1.211,7.543-2.963,11.132-4.673
	c5.671-2.702,11.028-5.254,16.169-5.254s10.498,2.552,16.169,5.254c3.589,1.71,7.271,3.462,11.132,4.673l-22.776,213.842
	c-0.351,3.295,2.036,6.25,5.331,6.602c0.216,0.023,0.43,0.034,0.643,0.034c3.028,0,5.631-2.286,5.959-5.365l22.724-213.345
	c0.348,0.005,0.698,0.009,1.058,0.009c2.496,0,4.988-0.126,7.397-0.249c2.349-0.12,4.566-0.232,6.729-0.232
	c4.274,0,7.29,0.46,9.779,1.492c4.644,1.926,8.588,6.309,12.763,10.949c1.437,1.596,2.896,3.211,4.421,4.774l-53.05,196.452
	c-0.864,3.199,1.029,6.493,4.228,7.356c0.524,0.142,1.05,0.209,1.568,0.209c2.645,0,5.066-1.762,5.788-4.437l51.72-191.525
	c3.853,2.107,7.996,3.595,12.034,5.033c5.849,2.083,11.374,4.05,14.879,7.557c3.388,3.387,5.339,8.663,7.346,14.291l-77.252,168.85
	c-1.378,3.013-0.054,6.574,2.96,7.952c0.809,0.37,1.657,0.545,2.492,0.545c2.275,0,4.452-1.301,5.46-3.505l72.81-159.139
	c0.164,0.26,0.318,0.524,0.49,0.78c3.052,4.559,7.151,8.248,11.115,11.815c4.64,4.174,9.022,8.118,10.948,12.761
	c1.87,4.51,1.574,10.337,1.26,16.507c-0.111,2.191-0.219,4.414-0.241,6.648l-87.99,114.112c-2.023,2.624-1.537,6.392,1.088,8.415
	c1.091,0.842,2.38,1.249,3.659,1.249c1.797,0,3.574-0.804,4.756-2.337l81.136-105.223c1.108,2.951,2.46,5.807,3.793,8.604
	c2.702,5.671,5.254,11.028,5.254,16.169C347.152,193.793,344.601,199.15,341.899,204.823z"/>
<g>
</g>
<g>
</g>
<g>
</g>
<g>
</g>
<g>
</g>
<g>
</g>
<g>
</g>
<g>
</g>
<g>
</g>
<g>
</g>
<g>
</g>
<g>
</g>
<g>
</g>
<g>
</g>
<g>
</g>
</svg>
